<?xml version="1.0" standalone="no"?>
<!DOCTYPE svg PUBLIC "-//W3C//DTD SVG 20010904//EN"
 "http://www.w3.org/TR/2001/REC-SVG-20010904/DTD/svg10.dtd">
<svg version="1.0" xmlns="http://www.w3.org/2000/svg"
 width="1164.000000pt" height="1164.000000pt" viewBox="0 0 1164.000000 1164.000000"
 preserveAspectRatio="xMidYMid meet">

<g transform="translate(0.000000,1164.000000) scale(0.100000,-0.100000)"
fill="#000000" stroke="none">
<path d="M5693 8665 c-394 -71 -696 -357 -796 -755 -26 -102 -30 -337 -8 -435
31 -139 102 -294 183 -396 15 -20 28 -40 28 -43 0 -3 -374 -6 -831 -6 l-831 0
-21 26 c-44 57 -156 73 -217 31 -101 -68 -98 -225 5 -281 22 -11 43 -25 48
-31 15 -20 -2 -74 -92 -285 -51 -118 -160 -377 -243 -575 -137 -329 -202 -484
-412 -991 -39 -95 -129 -312 -201 -483 l-129 -311 -48 0 c-42 0 -48 -3 -48
-21 0 -33 98 -121 181 -161 143 -70 309 -111 574 -144 175 -22 679 -25 860 -6
420 45 715 147 794 276 31 49 27 56 -28 56 l-49 0 -49 117 c-164 396 -198 468
-220 471 -13 2 -23 0 -23 -3 0 -4 52 -131 116 -283 64 -152 118 -283 121 -289
4 -10 -212 -13 -1061 -13 -586 0 -1066 2 -1066 5 0 3 46 115 101 248 56 133
116 278 134 322 18 44 96 231 173 415 76 184 176 423 220 530 192 463 422
1004 430 1012 4 4 42 -74 84 -174 42 -101 138 -327 213 -503 75 -176 190 -449
257 -606 111 -266 122 -287 144 -285 13 0 22 6 20 11 -38 93 -282 673 -411
975 -313 738 -296 684 -224 720 21 11 43 29 49 40 11 20 21 20 986 20 l976 0
29 29 c53 53 38 101 -54 176 -115 93 -202 221 -253 370 -39 115 -46 304 -15
425 61 242 218 433 444 541 309 147 679 92 925 -137 172 -160 262 -358 262
-582 0 -239 -83 -420 -277 -601 -93 -86 -98 -93 -98 -132 0 -33 6 -46 28 -65
l28 -24 971 0 971 0 38 -35 c22 -19 46 -35 54 -35 8 0 17 -14 20 -34 6 -28
-17 -90 -153 -412 -323 -763 -301 -709 -279 -712 11 -2 23 0 27 5 5 4 52 112
105 238 151 361 328 780 332 784 8 10 -22 79 375 -869 93 -223 205 -488 248
-590 198 -471 428 -1027 435 -1047 l6 -23 -1060 0 c-584 0 -1061 2 -1061 5 0
3 47 116 104 253 57 136 147 353 201 482 54 129 115 275 136 323 29 65 39 101
39 139 0 32 -4 48 -9 43 -9 -9 -177 -407 -424 -1002 l-100 -243 -43 0 c-52 0
-61 -12 -38 -47 128 -196 682 -320 1334 -299 540 16 891 105 1038 260 69 73
68 86 -6 86 l-59 0 -41 103 c-50 124 -245 592 -475 1137 -99 236 -315 752
-449 1073 -131 317 -131 317 -68 359 107 72 110 223 6 287 -53 33 -132 29
-184 -9 -23 -17 -42 -35 -42 -40 0 -7 -290 -10 -841 -10 l-840 0 40 48 c184
217 253 554 177 855 -47 185 -126 320 -271 462 -145 143 -323 235 -520 270
-105 18 -302 18 -402 0z"/>
<path d="M4435 6485 c-35 -34 -34 -93 0 -125 l25 -24 673 0 672 -1 0 -1290 c0
-1289 0 -1290 -22 -1388 -40 -182 -104 -277 -227 -337 -88 -44 -155 -59 -281
-66 -124 -7 -164 -16 -203 -48 -18 -15 -52 -26 -105 -34 -101 -15 -168 -45
-212 -93 -67 -75 -167 -69 1135 -69 929 0 1170 3 1170 13 0 23 -38 70 -80 98
-41 27 -152 59 -208 59 -16 0 -37 9 -47 20 -29 32 -93 48 -214 54 -142 7 -252
36 -330 86 -88 57 -134 128 -174 268 l-22 77 -3 1321 -3 1322 63 5 c35 3 338
6 673 7 l610 1 24 24 c35 34 33 91 -4 122 l-26 23 -1430 0 -1430 0 -24 -25z"/>
<path d="M7947 5584 c-4 -4 -7 -324 -7 -711 l0 -704 155 3 156 3 0 705 -1 705
-148 3 c-81 1 -151 -1 -155 -4z m248 -124 c4 -6 -32 -10 -99 -10 -64 0 -106 4
-106 10 0 6 40 10 99 10 56 0 103 -4 106 -10z m-15 -50 c0 -6 -35 -10 -86 -10
-54 0 -83 4 -79 10 3 6 42 10 86 10 46 0 79 -4 79 -10z"/>
<path d="M8445 5531 l-140 -6 -2 -660 c-2 -363 -1 -669 2 -680 4 -20 11 -20
157 -18 l153 2 0 683 c0 600 -2 683 -15 683 -8 1 -78 -1 -155 -4z m90 -171
c-3 -5 -33 -10 -66 -10 -34 0 -58 -4 -54 -9 3 -5 30 -7 60 -4 l55 6 0 -84 c0
-46 -4 -172 -10 -279 -5 -107 -12 -311 -16 -452 l-7 -257 -28 6 c-17 3 -35 0
-44 -7 -9 -7 -17 -11 -19 -9 -2 2 -6 253 -9 557 l-7 552 76 0 c48 0 73 -4 69
-10z m-35 -1120 c0 -5 -22 -10 -50 -10 -27 0 -50 5 -50 10 0 6 23 10 50 10 28
0 50 -4 50 -10z"/>
<path d="M8988 5325 c-2 -2 -75 -9 -163 -14 -87 -6 -162 -14 -167 -19 -7 -7 0
-121 42 -637 11 -137 24 -301 29 -364 5 -62 14 -118 19 -123 7 -7 56 -7 144
-2 117 8 133 11 132 27 0 9 -1 266 -2 571 -2 465 -4 555 -16 559 -8 3 -16 4
-18 2z m-15 -1055 c-13 -12 -193 -22 -193 -11 0 14 31 20 115 23 74 3 92 0 78
-12z"/>
<path d="M2785 5038 c-76 -59 -73 -215 4 -261 20 -11 51 -17 95 -17 l66 0 0
39 c0 23 -5 41 -12 44 -10 3 -10 7 0 20 17 20 18 93 2 112 -11 13 54 15 571
14 544 -1 627 -6 407 -24 -58 -5 -78 -10 -78 -21 0 -11 -20 -14 -92 -16 l-93
-2 85 -3 c90 -4 117 -15 88 -37 -16 -12 -16 -14 5 -24 12 -7 65 -13 117 -15
52 -1 -89 -4 -315 -5 -225 -1 -454 -5 -507 -9 l-98 -6 0 -34 0 -33 564 0 c415
0 567 3 572 12 4 6 -6 22 -24 37 -32 27 -38 54 -34 141 2 30 7 38 33 47 24 9
30 17 27 35 l-3 23 -676 3 -676 2 -28 -22z m82 -100 c-1 -29 1 -65 6 -80 6
-24 4 -28 -12 -28 -26 0 -42 23 -48 69 -6 44 16 91 41 91 11 0 14 -14 13 -52z"/>
<path d="M2970 4773 c0 -49 4 -73 9 -64 5 7 13 11 19 7 12 -7 28 95 18 119 -3
8 -15 15 -26 15 -18 0 -20 -6 -20 -77z"/>
<path d="M2604 4707 c-2 -7 -3 -62 -2 -123 l3 -109 711 -3 712 -2 4 117 c3 65
3 121 1 126 -2 4 -229 7 -504 7 l-499 0 0 -30 c0 -32 -9 -37 -28 -18 -10 10
-17 10 -32 0 -18 -11 -20 -10 -20 18 l0 30 -170 0 c-132 0 -172 -3 -176 -13z
m166 -117 c0 -53 -4 -90 -10 -90 -6 0 -10 37 -10 90 0 53 4 90 10 90 6 0 10
-37 10 -90z"/>
<path d="M2609 4421 c-22 -18 -24 -26 -24 -124 0 -74 4 -109 14 -121 12 -15
73 -16 740 -14 l726 3 -2 35 c-5 98 -5 182 1 187 3 4 6 17 6 30 l0 23 -719 0
c-693 0 -720 -1 -742 -19z m111 -127 c0 -62 -1 -65 -22 -62 -20 3 -23 10 -26
52 -4 60 2 76 28 76 18 0 20 -6 20 -66z m937 52 c186 -12 224 -18 189 -32 -20
-8 -21 -24 -1 -24 8 0 15 -4 15 -8 0 -5 -48 -12 -107 -16 -60 -3 -126 -11
-148 -17 -24 -7 -195 -13 -437 -16 l-398 -5 0 66 0 66 348 -1 c191 0 434 -6
539 -13z"/>
</g>
</svg>
